<?xml version="1.0" encoding="UTF-8" standalone="no"?>
<svg
   height="128"
   width="128"
   version="1.1"
   id="svg120"
   sodipodi:docname="favicon.svg"
   inkscape:version="1.4 (e7c3feb100, 2024-10-09)"
   inkscape:export-filename="favicon.png"
   inkscape:export-xdpi="24"
   inkscape:export-ydpi="24"
   xmlns:inkscape="http://www.inkscape.org/namespaces/inkscape"
   xmlns:sodipodi="http://sodipodi.sourceforge.net/DTD/sodipodi-0.dtd"
   xmlns:xlink="http://www.w3.org/1999/xlink"
   xmlns="http://www.w3.org/2000/svg"
   xmlns:svg="http://www.w3.org/2000/svg">
  <sodipodi:namedview
     id="namedview122"
     pagecolor="#505050"
     bordercolor="#ffffff"
     borderopacity="1"
     inkscape:pageshadow="0"
     inkscape:pageopacity="0"
     inkscape:pagecheckerboard="1"
     showgrid="false"
     inkscape:current-layer="svg120"
     inkscape:showpageshadow="0"
     inkscape:deskcolor="#505050"
     inkscape:zoom="4"
     inkscape:cx="74"
     inkscape:cy="68.875"
     inkscape:window-width="1907"
     inkscape:window-height="1138"
     inkscape:window-x="26"
     inkscape:window-y="23"
     inkscape:window-maximized="0">
    <inkscape:grid
       type="xygrid"
       id="grid1384"
       originx="0"
       originy="0"
       spacingy="1"
       spacingx="1"
       units="px"
       visible="false" />
  </sodipodi:namedview>
  <defs
     id="defs24">
    <linearGradient
       id="c">
      <stop
         offset="0"
         stop-color="#fff"
         id="stop2" />
      <stop
         offset=".727"
         stop-color="#fff"
         id="stop4" />
      <stop
         offset="1"
         stop-color="#f6f5f4"
         id="stop6" />
    </linearGradient>
    <linearGradient
       xlink:href="#a"
       id="g"
       gradientUnits="userSpaceOnUse"
       x1="52.954"
       y1="229.984"
       x2="39.951"
       y2="223.426"
       gradientTransform="matrix(-1,0,0,1,1180,257)" />
    <linearGradient
       id="a">
      <stop
         offset="0"
         stop-color="#4b4752"
         id="stop10" />
      <stop
         offset="1"
         stop-color="#4b4752"
         stop-opacity="0"
         id="stop12" />
    </linearGradient>
    <linearGradient
       xlink:href="#b"
       id="i"
       gradientUnits="userSpaceOnUse"
       gradientTransform="matrix(0.8,0,0,1,18.5,0)"
       x1="88.781"
       y1="232.5"
       x2="94.5"
       y2="232.5" />
    <linearGradient
       id="b">
      <stop
         offset="0"
         stop-color="#3d3846"
         id="stop16" />
      <stop
         offset="1"
         stop-color="#3d3846"
         stop-opacity="0"
         id="stop18" />
    </linearGradient>
    <radialGradient
       xlink:href="#c"
       id="d"
       gradientUnits="userSpaceOnUse"
       gradientTransform="matrix(0.9088,0,0,0.9088,30.459,21.198)"
       cx="334"
       cy="231.209"
       fx="334"
       fy="231.209"
       r="7" />
    <radialGradient
       xlink:href="#c"
       id="e"
       gradientUnits="userSpaceOnUse"
       gradientTransform="matrix(0.9088,0,0,0.9088,30.459,21.198)"
       cx="334"
       cy="231.209"
       fx="334"
       fy="231.209"
       r="7" />
    <clipPath
       clipPathUnits="userSpaceOnUse"
       id="f" />
    <clipPath
       clipPathUnits="userSpaceOnUse"
       id="clipPath8961-7">
      <path
         style="fill:none;stroke:#000000;stroke-width:1.09264px;stroke-linecap:butt;stroke-linejoin:miter;stroke-opacity:1"
         d="M 474.71272,159.57315 V 92.400763 l 79.41669,79.416867 v 155.16476 l -235.0457,-3.18111 2.67185,-237.003108 z"
         id="path8963-5"
         sodipodi:nodetypes="ccccccc" />
    </clipPath>
    <inkscape:path-effect
       effect="fillet_chamfer"
       id="path-effect705"
       is_visible="true"
       lpeversion="1"
       satellites_param="F,0,0,1,0,15.083414,0,1 @ F,0,0,1,0,15.083414,0,1 @ F,0,0,1,0,5.7767671,0,1 @ F,0,0,1,0,5.7767671,0,1 @ F,0,0,1,0,14,0,1 @ F,0,0,1,0,14,0,1 @ F,0,0,1,0,3,0,1 @ F,0,0,1,0,3,0,1 @ F,0,0,1,0,14,0,1 @ F,0,0,1,0,14,0,1 @ F,0,0,1,0,3,0,1 @ F,0,0,1,0,3,0,1 @ F,0,0,1,0,14,0,1 @ F,0,0,1,0,14,0,1 @ F,0,0,1,0,52.225208,0,1 @ F,0,0,1,0,19.359727,0,1 @ F,0,0,1,0,11.804374,0,1 @ F,0,0,1,0,11.804374,0,1 @ F,0,0,1,0,0,0,1 @ F,0,0,1,0,12.271542,0,1"
       unit="px"
       method="auto"
       mode="F"
       radius="0"
       chamfer_steps="1"
       flexible="false"
       use_knot_distance="true"
       apply_no_radius="true"
       apply_with_radius="true"
       only_selected="false"
       hide_knots="false"
       nodesatellites_param="F,0,0,1,0,15.083414,0,1 @ F,0,0,1,0,15.083414,0,1 @ F,0,0,1,0,5.7767671,0,1 @ F,0,0,1,0,5.7767671,0,1 @ F,0,0,1,0,14,0,1 @ F,0,0,1,0,14,0,1 @ F,0,0,1,0,3,0,1 @ F,0,0,1,0,3,0,1 @ F,0,0,1,0,14,0,1 @ F,0,0,1,0,14,0,1 @ F,0,0,1,0,3,0,1 @ F,0,0,1,0,3,0,1 @ F,0,0,1,0,14,0,1 @ F,0,0,1,0,14,0,1 @ F,0,0,1,0,52.225208,0,1 @ F,0,0,1,0,19.359727,0,1 @ F,0,0,1,0,11.804374,0,1 @ F,0,0,1,0,11.804374,0,1 @ F,0,0,1,0,0,0,1 @ F,0,0,1,0,12.271542,0,1" />
    <linearGradient
       inkscape:collect="always"
       xlink:href="#linearGradient1075"
       id="linearGradient1055"
       gradientUnits="userSpaceOnUse"
       gradientTransform="matrix(0.11683154,0,0,0.11683154,1285.8995,2146.1479)"
       x1="319.99997"
       y1="93.000008"
       x2="319.99997"
       y2="13" />
    <linearGradient
       id="linearGradient1075"
       inkscape:collect="always">
      <stop
         id="stop1071"
         offset="0"
         style="stop-color:#ffffff;stop-opacity:1" />
      <stop
         id="stop1073"
         offset="1"
         style="stop-color:#4a86cf;stop-opacity:0" />
    </linearGradient>
    <radialGradient
       inkscape:collect="always"
       xlink:href="#linearGradient1087-3"
       id="radialGradient1053"
       gradientUnits="userSpaceOnUse"
       gradientTransform="matrix(0.33988501,0,0,0.33988501,1214.3647,2153.2845)"
       cx="320.70712"
       cy="-31.994987"
       fx="320.70712"
       fy="-31.994987"
       r="49.999992" />
    <linearGradient
       id="linearGradient1087-3"
       inkscape:collect="always">
      <stop
         id="stop1083-6"
         offset="0"
         style="stop-color:#1a4172;stop-opacity:1" />
      <stop
         id="stop1085-7"
         offset="1"
         style="stop-color:#000000;stop-opacity:1" />
    </linearGradient>
    <clipPath
       clipPathUnits="userSpaceOnUse"
       id="clipPath1">
      <path
         style="fill:none;stroke:#000000;stroke-width:1.09264px;stroke-linecap:butt;stroke-linejoin:miter;stroke-opacity:1"
         d="M 474.71272,159.57315 V 92.400763 l 79.41669,79.416867 v 155.16476 l -235.0457,-3.18111 2.67185,-237.003108 z"
         id="path1"
         sodipodi:nodetypes="ccccccc" />
    </clipPath>
  </defs>
  <rect
     style="fill:#241f31;stroke-width:49.2777;stroke-linecap:round;-inkscape-stroke:none;paint-order:stroke fill markers"
     id="rect7"
     width="128"
     height="128"
     x="0"
     y="0"
     rx="0.99999994"
     ry="0.99999994" />
  <g
     id="g7"
     transform="matrix(1.3874386,0,0,1.3874386,-7.7398315,-49.676161)">
    <g
       id="g8950"
       transform="matrix(0.86536456,0,0,0.86536456,-1223.5406,1923.1749)">
      <rect
         style="fill:#48464c;fill-opacity:1;stroke:none;stroke-width:2.02956;stroke-miterlimit:4;stroke-dasharray:none;stroke-opacity:1;stop-color:#000000"
         id="rect234"
         width="69.869568"
         height="118.83728"
         x="1435.3749"
         y="-2167.4412"
         rx="11.054564"
         ry="11.054564" />
      <rect
         style="fill:#3d3846;stroke:none;stroke-width:1.99954;stroke-miterlimit:4;stroke-dasharray:none;stroke-opacity:1;stop-color:#000000"
         id="rect1194"
         width="68.83596"
         height="117.07927"
         x="1435.8917"
         y="-2165.4788"
         rx="10.891028"
         ry="10.891028" />
      <g
         id="g729"
         transform="matrix(0.52880951,0,0,0.52880951,1253.6024,-2203.3566)"
         style="stroke:none;stroke-width:5.33661;stroke-miterlimit:4;stroke-dasharray:none;stroke-opacity:1"
         clip-path="url(#clipPath8961-7)"
         mask="none">
        <path
           style="fill:#ffffff;stroke:none;stroke-width:5.33661;stroke-linecap:butt;stroke-linejoin:miter;stroke-miterlimit:4;stroke-dasharray:none;stroke-opacity:1"
           d="m 349.07091,128.74042 a 15.06072,15.06072 61.479043 0 0 9.69032,17.83179 l 75.71481,34.50429 a 8.9808802,8.9808802 57.249731 0 1 5.25665,8.1723 5.6428971,5.6428971 136.37599 0 1 -5.77677,5.50576 h -82.03955 a 13.999995,13.999995 134.99999 0 0 -13.99999,14 13.999998,13.999998 44.999954 0 0 14,13.99998 l 84.81631,2e-5 a 3.0000049,3.0000049 44.999965 0 1 3,3 l 1e-5,0.99999 a 2.9999957,2.9999957 134.99996 0 1 -3,3 h -84.38706 a 14,14 135 0 0 -14,14 13.999998,13.999998 44.999985 0 0 14,13.99999 l 84.38706,2e-5 a 3.0000006,3.0000006 45.000006 0 1 3,3 v 1 a 2.9999997,2.9999997 135 0 1 -3,3 l -84.40065,-1e-5 a 13.999984,13.999984 134.99997 0 0 -13.99998,14 v 0 a 14.000015,14.000015 44.999969 0 0 14.00001,14 l 97.55413,0 a 52.225217,52.225217 135 0 0 52.22522,-52.22521 l 1e-5,-51.28981 a 57.456716,57.456716 71.379046 0 0 -11.71615,-34.77176 l -26.5007,-34.8604 a 11.881276,11.881276 7.9441089 0 0 -16.58729,-2.31469 l -1.11301,0.83475 a 9.7129559,9.7129559 92.5786 0 0 -0.67487,14.98543 l 29.35959,26.46062 a 6.8829673,6.8829673 151.03838 0 1 -10.36776,5.73787 l -96.77264,-44.51106 a 13.704504,13.704504 156.95799 0 0 -18.6677,7.94013 z"
           id="path703"
           sodipodi:nodetypes="ccccccccccccccccccccc"
           inkscape:path-effect="#path-effect705"
           inkscape:original-d="m 354.03524,114.49736 -8.9994,25.82 94.69686,43.15467 -1e-5,11.28253 H 337.91637 l 1e-5,27.99998 101.81631,2e-5 1e-5,6.99999 H 338.34564 v 27.99999 l 101.38706,2e-5 v 7 l -101.40065,-1e-5 3e-5,28 h 163.77934 l 2e-5,-122.87475 -45.36064,-59.66974 -20.00001,14.99999 38.12822,34.36343 0.78101,10.8658 z"
           mask="none" />
        <path
           id="path203"
           mask="none"
           style="fill:#f6f5f4;stroke:none;stroke-width:5.33661;stroke-linecap:butt;stroke-linejoin:miter;stroke-miterlimit:4;stroke-dasharray:none;stroke-opacity:1"
           d="m 442.6781,122.91198 a 9.7129561,9.7129561 0 0 0 2.73944,10.20111 l 27.60751,24.88168 a 6.8829673,6.8829673 0 0 0 1.75241,-4.39402 l -29.35992,-26.46071 a 9.7129561,9.7129561 0 0 1 -2.73944,-4.22806 z m -93.84598,6.44365 a 15.06072,15.06072 0 0 0 9.82709,17.21692 l 75.71508,34.50443 a 8.9808803,8.9808803 0 0 1 4.57855,4.74822 5.6428971,5.6428971 0 0 0 0.67867,-2.54873 8.9808803,8.9808803 0 0 0 -5.25722,-8.17253 l -75.71508,-34.50443 a 15.06072,15.06072 0 0 1 -9.82709,-11.24388 z m -10.69525,76.4148 a 13.999995,13.999995 0 0 0 -0.322,2.98466 13.999998,13.999998 0 0 0 13.99944,13.99943 h 84.81644 a 3.0000048,3.0000048 0 0 1 1.67809,0.51396 2.9999957,2.9999957 0 0 0 1.32267,-2.48681 v -0.99943 a 3.0000048,3.0000048 0 0 0 -3.00076,-2.99952 h -84.81644 a 13.999998,13.999998 0 0 1 -13.67744,-11.01229 z m 163.87285,28.78651 a 52.225217,52.225217 0 0 1 -52.2254,52.22541 h -97.55389 a 14.000015,14.000015 0 0 1 -13.67744,-11.01353 13.999983,13.999983 0 0 0 -0.32324,2.98591 14.000015,14.000015 0 0 0 14.00068,13.99942 h 97.55389 a 52.225217,52.225217 0 0 0 52.2254,-52.2254 z m -163.44311,6.21207 a 14,14 0 0 0 -0.32323,2.9859 13.999998,13.999998 0 0 0 14.00067,13.99943 h 84.3867 a 3.0000006,3.0000006 0 0 1 1.67809,0.51395 2.9999997,2.9999997 0 0 0 1.32267,-2.48556 v -1.00067 a 3.0000006,3.0000006 0 0 0 -3.00076,-2.99952 h -84.3867 a 13.999998,13.999998 0 0 1 -13.67744,-11.01353 z" />
      </g>
      <rect
         style="fill:#241f31;stroke:none;stroke-width:2.3112;stroke-miterlimit:4;stroke-dasharray:none;stroke-opacity:1;stop-color:#000000"
         id="rect1202"
         width="23.031319"
         height="11.515659"
         x="1476.3435"
         y="-2159.9453"
         rx="5.7578297"
         ry="5.7578297" />
      <g
         id="g10950"
         transform="matrix(0.74574966,0,0,0.74574966,506.72116,-552.08139)">
        <circle
           r="5.8415761"
           transform="scale(1,-1)"
           cy="2148.2507"
           cx="1323.2856"
           id="circle1045"
           style="color:#000000;display:inline;overflow:visible;visibility:visible;opacity:0.664;fill:url(#linearGradient1055);fill-opacity:1;fill-rule:nonzero;stroke:none;stroke-width:0.837047;marker:none;enable-background:new" />
        <circle
           r="6.5425658"
           transform="scale(1,-1)"
           cy="2148.2507"
           cx="1323.2856"
           id="circle1033"
           style="color:#000000;display:inline;overflow:visible;visibility:visible;fill:#000000;fill-opacity:1;fill-rule:nonzero;stroke:none;stroke-width:0.837047;marker:none;enable-background:new" />
        <circle
           r="5.8415761"
           transform="scale(1,-1)"
           cy="2148.2507"
           cx="1323.2856"
           id="circle1035"
           style="color:#000000;display:inline;overflow:visible;visibility:visible;fill:url(#radialGradient1053);fill-opacity:1;fill-rule:nonzero;stroke:none;stroke-width:0.837047;marker:none;enable-background:new" />
        <circle
           r="2.5702949"
           transform="scale(1,-1)"
           cy="2148.2507"
           cx="1323.2856"
           id="circle1037"
           style="color:#000000;display:inline;overflow:visible;visibility:visible;fill:#15365f;fill-opacity:1;fill-rule:nonzero;stroke:none;stroke-width:0.837047;marker:none;enable-background:new" />
        <circle
           r="1.8693047"
           transform="scale(1,-1)"
           cy="2150.3538"
           cx="1321.4163"
           id="circle1039"
           style="color:#000000;display:inline;overflow:visible;visibility:visible;fill:#2864b0;fill-opacity:1;fill-rule:nonzero;stroke:none;stroke-width:0.837047;marker:none;enable-background:new" />
        <ellipse
           ry="0.93465233"
           rx="0.9346531"
           transform="scale(1,-1)"
           cy="2145.6804"
           cx="1326.0896"
           id="ellipse1041"
           style="color:#000000;display:inline;overflow:visible;visibility:visible;fill:#2864b0;fill-opacity:1;fill-rule:nonzero;stroke:none;stroke-width:0.837047;marker:none;enable-background:new" />
        <ellipse
           ry="0.46732616"
           rx="0.46732655"
           transform="scale(1,-1)"
           cy="2147.0825"
           cx="1324.6876"
           id="ellipse1043"
           style="color:#000000;display:inline;overflow:visible;visibility:visible;fill:#2864b0;fill-opacity:1;fill-rule:nonzero;stroke:none;stroke-width:0.837047;marker:none;enable-background:new" />
      </g>
      <g
         id="g205"
         transform="matrix(0.52880951,0,0,0.52880951,1124.8047,-2203.3566)"
         style="stroke:none;stroke-width:5.33661;stroke-miterlimit:4;stroke-dasharray:none;stroke-opacity:1"
         clip-path="url(#clipPath8961-7)"
         mask="none" />
    </g>
    <circle
       style="fill:#143258;fill-opacity:1;stroke:none;stroke-width:1.61763;stroke-miterlimit:4;stroke-dasharray:none;stroke-opacity:1;stop-color:#000000"
       id="path8952"
       cx="58.341309"
       cy="59.049202"
       r="1.2866794" />
    <circle
       style="fill:#2864b0;fill-opacity:1;stroke:none;stroke-width:0.62757;stroke-miterlimit:4;stroke-dasharray:none;stroke-opacity:1;stop-color:#000000"
       id="circle10952"
       cx="58.341309"
       cy="58.629921"
       r="0.49917424" />
  </g>
</svg>
