<?xml version="1.0" encoding="UTF-8" standalone="no"?>
<svg
   height="180"
   width="180"
   version="1.1"
   id="svg120"
   sodipodi:docname="apple-touch-icon.svg"
   inkscape:version="1.1 (c68e22c387, 2021-05-23)"
   inkscape:export-filename="/var/home/jimmac/public_html/jimmac.eu/assets/img/apple-touch-icon.png"
   inkscape:export-xdpi="96"
   inkscape:export-ydpi="96"
   xmlns:inkscape="http://www.inkscape.org/namespaces/inkscape"
   xmlns:sodipodi="http://sodipodi.sourceforge.net/DTD/sodipodi-0.dtd"
   xmlns:xlink="http://www.w3.org/1999/xlink"
   xmlns="http://www.w3.org/2000/svg"
   xmlns:svg="http://www.w3.org/2000/svg"
   xmlns:rdf="http://www.w3.org/1999/02/22-rdf-syntax-ns#"
   xmlns:cc="http://creativecommons.org/ns#"
   xmlns:dc="http://purl.org/dc/elements/1.1/">
  <metadata
     id="metadata124">
    <rdf:RDF>
      <cc:Work
         rdf:about="">
        <dc:format>image/svg+xml</dc:format>
        <dc:type
           rdf:resource="http://purl.org/dc/dcmitype/StillImage" />
        <dc:title />
      </cc:Work>
    </rdf:RDF>
  </metadata>
  <sodipodi:namedview
     pagecolor="#ffffff"
     bordercolor="#666666"
     borderopacity="1"
     objecttolerance="10"
     gridtolerance="10"
     guidetolerance="10"
     inkscape:pageopacity="0"
     inkscape:pageshadow="2"
     inkscape:window-width="640"
     inkscape:window-height="480"
     id="namedview122"
     showgrid="true"
     borderlayer="true"
     inkscape:showpageshadow="false"
     inkscape:snap-nodes="false"
     inkscape:snap-bbox="true"
     inkscape:current-layer="g181"
     inkscape:document-rotation="0"
     inkscape:pagecheckerboard="1">
    <inkscape:grid
       type="xygrid"
       id="grid574" />
  </sodipodi:namedview>
  <defs
     id="defs24">
    <linearGradient
       id="c">
      <stop
         offset="0"
         stop-color="#fff"
         id="stop2" />
      <stop
         offset=".727"
         stop-color="#fff"
         id="stop4" />
      <stop
         offset="1"
         stop-color="#f6f5f4"
         id="stop6" />
    </linearGradient>
    <linearGradient
       xlink:href="#a"
       id="g"
       gradientUnits="userSpaceOnUse"
       x1="52.953999"
       y1="229.98399"
       x2="39.951"
       y2="223.42599"
       gradientTransform="matrix(-1.5267165,0,0,1.5267165,1186.1746,135.79407)" />
    <linearGradient
       id="a">
      <stop
         offset="0"
         stop-color="#4b4752"
         id="stop10" />
      <stop
         offset="1"
         stop-color="#4b4752"
         stop-opacity="0"
         id="stop12" />
    </linearGradient>
    <linearGradient
       xlink:href="#b"
       id="i"
       gradientUnits="userSpaceOnUse"
       gradientTransform="matrix(0.8,0,0,1,18.5,0)"
       x1="88.780998"
       y1="232.5"
       x2="94.5"
       y2="232.5" />
    <linearGradient
       id="b">
      <stop
         offset="0"
         stop-color="#3d3846"
         id="stop16" />
      <stop
         offset="1"
         stop-color="#3d3846"
         stop-opacity="0"
         id="stop18" />
    </linearGradient>
    <radialGradient
       xlink:href="#c"
       id="d"
       gradientUnits="userSpaceOnUse"
       gradientTransform="matrix(0.9088,0,0,0.9088,30.459,21.198)"
       cx="334"
       cy="231.209"
       fx="334"
       fy="231.209"
       r="7" />
    <radialGradient
       xlink:href="#c"
       id="e"
       gradientUnits="userSpaceOnUse"
       gradientTransform="matrix(0.9088,0,0,0.9088,30.459,21.198)"
       cx="334"
       cy="231.209"
       fx="334"
       fy="231.209"
       r="7" />
    <clipPath
       clipPathUnits="userSpaceOnUse"
       id="f" />
    <clipPath
       clipPathUnits="userSpaceOnUse"
       id="clipPath1017">
      <ellipse
         style="fill:#86664c;fill-opacity:1;stroke:none;stroke-width:1;stroke-opacity:1;stop-color:#000000"
         id="ellipse1019"
         cx="1116.744"
         cy="498.82642"
         rx="48.640701"
         ry="49.217495" />
    </clipPath>
    <radialGradient
       xlink:href="#c"
       id="d-3"
       gradientUnits="userSpaceOnUse"
       gradientTransform="matrix(0.9088,0,0,0.9088,30.459,21.198)"
       cx="334"
       cy="231.209"
       fx="334"
       fy="231.209"
       r="7" />
    <radialGradient
       xlink:href="#c"
       id="e-3"
       gradientUnits="userSpaceOnUse"
       gradientTransform="matrix(0.9088,0,0,0.9088,30.459,21.198)"
       cx="334"
       cy="231.209"
       fx="334"
       fy="231.209"
       r="7" />
  </defs>
  <g
     id="g181"
     clip-path="url(#clipPath1017)"
     transform="matrix(1.8503023,0,0,1.8503023,-1976.1736,-831.90145)">
    <rect
       width="98.691544"
       height="98.43499"
       x="1068.1033"
       y="449.60892"
       rx="0"
       ry="0"
       fill="#99c1f1"
       id="rect26"
       style="stroke-width:0.719449;fill:#26a269" />
    <path
       d="m 1158.7741,588.57407 v -25.27714 c 0,-9.17128 -8.1113,-14.01318 -16.5542,-16.55409 l -52.4909,-15.78636 -54.3582,15.78854 c -8.807,2.55726 -16.554,7.38282 -16.554,16.553 v 25.27605 z"
       fill="#63452c"
       id="path28"
       style="stroke-width:1.09052" />
    <circle
       style="font-variation-settings:normal;stroke-width:1.52672"
       cx="1088.4648"
       cy="480.83203"
       r="45.801495"
       fill="#5e5c64"
       id="circle30" />
    <g
       transform="matrix(1.5267165,0,0,1.5267165,441.13702,-139.01489)"
       id="g48">
      <rect
         style="font-variation-settings:normal"
         width="8"
         height="12"
         x="448"
         y="412"
         rx="2"
         ry="2"
         fill="#cdab8f"
         id="rect32" />
      <path
         style="font-variation-settings:normal"
         d="m 456,421 a 7,7 0 0 1 -7,7 v -7 z"
         fill="#cdab8f"
         id="path34" />
      <path
         style="font-variation-settings:normal"
         d="m 454,414 v 7 a 5,5 0 0 1 -10,0 c 0,-1.573 0.742,-5.054 2,-5.998 V 414 h 3 z"
         opacity="0.124"
         id="path36" />
      <circle
         style="font-variation-settings:normal"
         cx="452"
         cy="422"
         r="2"
         opacity="0.124"
         id="circle38" />
      <rect
         style="font-variation-settings:normal"
         width="8"
         height="12"
         x="-400"
         y="412"
         rx="2"
         ry="2"
         transform="scale(-1,1)"
         fill="#cdab8f"
         id="rect40" />
      <path
         style="font-variation-settings:normal"
         d="m 392,421 a 7,7 0 0 0 7,7 v -7 z"
         fill="#cdab8f"
         id="path42" />
      <path
         style="font-variation-settings:normal"
         d="m 394,414 v 7 a 5,5 0 0 0 10,0 c 0,-1.573 -0.742,-5.054 -2,-5.998 V 414 h -3 z"
         opacity="0.124"
         id="path44" />
      <circle
         style="font-variation-settings:normal"
         cx="-396"
         cy="422"
         r="2"
         transform="scale(-1,1)"
         opacity="0.124"
         id="circle46" />
    </g>
    <path
       d="m 1088.4648,438.08396 a 42.748063,42.748063 0 0 0 -42.748,42.74806 v 42.74807 c 0,3.52366 1.4763,6.68702 3.8473,8.91297 l 11.9924,11.99999 a 12.174038,12.174038 0 0 0 8.5877,3.5145 h 36.6412 a 12.174038,12.174038 0 0 0 8.5878,-3.51603 l 11.9939,-11.99999 a 12.172511,12.172511 0 0 0 3.8458,-8.91144 v -42.74807 a 42.748063,42.748063 0 0 0 -42.7481,-42.74806 z"
       fill="#cdab8f"
       id="path50"
       style="stroke-width:1.52672" />
    <path
       style="font-variation-settings:normal;stroke-width:1.52672"
       d="m 1083.9855,518.9694 c -2.855,0 -7.7344,1.54809 -7.7344,1.54809 v 1.53588 h 24.3572 v -1.53588 c 0,0 -4.8809,-1.54656 -7.7358,-1.54656 l -4.4428,0.52366 z"
       opacity="0.35"
       fill="#6c131e"
       id="path52" />
    <path
       style="line-height:normal;font-variant-ligatures:normal;font-variant-position:normal;font-variant-caps:normal;font-variant-numeric:normal;font-variant-alternates:normal;font-variant-east-asian:normal;font-feature-settings:normal;font-variation-settings:normal;text-indent:0;text-align:start;text-decoration:none;text-decoration-line:none;text-decoration-style:solid;text-decoration-color:#000000;text-transform:none;text-orientation:mixed;white-space:normal;shape-padding:0;shape-margin:0;inline-size:0;isolation:auto;mix-blend-mode:normal;solid-color:#000000;solid-opacity:1;stroke-width:1.52672"
       d="m 1076.2511,522.05337 h 24.4275 c 0,1.55572 -1.5573,3.02901 -3.0535,3.02901 h -18.3206 c -1.4717,0 -3.0534,-1.25496 -3.0534,-3.02901 z"
       color="#000000"
       font-weight="400"
       font-family="sans-serif"
       overflow="visible"
       opacity="0.137"
       fill="#ffffff"
       id="path54" />
    <path
       style="font-variation-settings:normal;stroke-width:1.52672"
       d="m 1094.3305,525.3297 a 11.729763,11.729763 0 0 1 -11.7313,0"
       opacity="0.25"
       fill-opacity="0.402"
       id="path56" />
    <g
       transform="matrix(1.5267165,0,0,1.5267165,561.74762,141.90095)"
       id="g66">
      <circle
         cx="334"
         cy="232"
         r="6"
         fill="url(#d)"
         id="circle58"
         style="fill:url(#d-3)" />
      <circle
         cx="334"
         cy="232"
         r="4"
         fill="#47311f"
         id="circle60" />
      <circle
         cx="334"
         cy="232"
         r="2"
         id="circle62" />
      <circle
         cx="334"
         cy="230.383"
         r="1.383"
         fill="#ffffff"
         id="circle64" />
    </g>
    <g
       transform="matrix(1.5267165,0,0,1.5267165,595.33539,141.90095)"
       id="g76">
      <circle
         cx="334"
         cy="232"
         r="6"
         fill="url(#e)"
         id="circle68"
         style="fill:url(#e-3)" />
      <circle
         cx="334"
         cy="232"
         r="4"
         fill="#47311f"
         id="circle70" />
      <circle
         cx="334"
         cy="232"
         r="2"
         id="circle72" />
      <circle
         cx="334"
         cy="230.383"
         r="1.383"
         fill="#ffffff"
         id="circle74" />
    </g>
    <path
       d="m 1120.5259,482.35874 h -30.5343 v 10.68702 h 30.5343 z m 0,21.37403 h -30.5343 v 10.68702 h 30.5343 z m -64.1221,0 h 30.5343 v 10.68702 h -30.5343 z"
       fill="#cdab8f"
       id="path78"
       style="stroke-width:1.52672" />
    <path
       d="m 1046.1198,486.93889 v 36.6412 c 0,3.52366 1.4764,6.68702 3.8474,8.91297 l 11.9938,11.99846 a 12.174038,12.174038 0 0 0 8.5878,3.51603 h 36.6412 a 12.174038,12.174038 0 0 0 8.5878,-3.51603 l 11.9924,-11.99846 a 12.175564,12.175564 0 0 0 3.8473,-8.91297 v -36.6412 h -3.0535 v 25.34655 c 0,2.67023 -1.1297,4.99236 -2.029,5.88702 l -6.7969,6.74503 a 9.2137343,9.2137343 0 0 1 -0.6122,0.5542 3.9664096,3.9664096 0 0 1 -3.3618,0.2458 c -1.3558,-0.53435 -2.4687,-1.72672 -2.4687,-4.27175 v -0.91909 c 0,-6.71297 -5.4993,-12.21373 -12.2138,-12.21373 h -24.4274 c -6.713,0 -12.2138,5.50076 -12.2138,12.21373 v 0.91909 c 0,2.54503 -1.1129,3.7374 -2.4687,4.27175 a 3.9618294,3.9618294 0 0 1 -3.3587,-0.2458 9.2137343,9.2137343 0 0 1 -0.6168,-0.5542 l -6.7939,-6.74503 c -0.9008,-0.89466 -2.0275,-3.21679 -2.0275,-5.88702 v -25.34655 z m 30.5344,27.4809 h 24.4274 c 3.4367,0 6.1069,2.67175 6.1069,6.10686 v 10.68702 c 0,3.43511 -2.6702,6.10687 -6.1069,6.10687 h -24.4274 c -3.4352,0 -6.1069,-2.67176 -6.1069,-6.10687 v -10.68702 c 0,-3.43511 2.6717,-6.10686 6.1069,-6.10686 z"
       fill="#b89a80"
       id="path80"
       style="stroke-width:1.52672" />
    <path
       d="M 1083.0343,482.35874 H 1052.5 v 10.68702 h 30.5343 z"
       fill="#cdab8f"
       id="path86"
       style="stroke-width:1.52672" />
    <path
       style="line-height:normal;font-variant-ligatures:normal;font-variant-position:normal;font-variant-caps:normal;font-variant-numeric:normal;font-variant-alternates:normal;font-variant-east-asian:normal;font-feature-settings:normal;font-variation-settings:normal;text-indent:0;text-align:start;text-decoration:none;text-decoration-line:none;text-decoration-style:solid;text-decoration-color:#000000;text-transform:none;text-orientation:mixed;white-space:normal;shape-padding:0;shape-margin:0;inline-size:0;isolation:auto;mix-blend-mode:normal;solid-color:#000000;solid-opacity:1;fill:#86664c;fill-opacity:1;stroke-width:1.52672"
       d="m 1088.4648,436.55724 c -24.4335,0 -44.2747,19.84121 -44.2747,44.27478 v 42.74807 a 13.716021,13.716021 0 0 0 4.3297,10.02442 l -0.037,-0.0321 11.9969,12.00152 v 0.003 a 13.720602,13.720602 0 0 0 9.6641,3.95725 h 36.6412 c 3.7619,0 7.1832,-1.51145 9.6611,-3.95725 v -0.003 l 11.9969,-12.00152 -0.037,0.0321 a 13.716021,13.716021 0 0 0 4.3328,-10.02442 v -42.74807 c 0,-24.43357 -19.8412,-44.27478 -44.2748,-44.27478 z m 0,3.05344 c 22.7848,0 41.2214,18.43815 41.2214,41.22134 v 42.74807 a 10.630527,10.630527 0 0 1 -3.3634,7.80152 l -0.018,0.0153 -12.0046,12.00915 a 10.625947,10.625947 0 0 1 -7.5145,3.07481 h -36.6412 a 10.625947,10.625947 0 0 1 -7.5084,-3.0687 v -0.006 l -12.0045,-12.01068 -0.018,-0.0153 a 10.630527,10.630527 0 0 1 -3.3695,-7.79999 v -42.74807 c 0,-22.78319 18.4366,-41.22134 41.2213,-41.22134 z"
       color="#000000"
       font-weight="400"
       font-family="sans-serif"
       overflow="visible"
       fill="#24222e"
       id="path88" />
    <path
       id="h"
       style="font-variation-settings:normal;fill:url(#g)"
       d="m 1091.5183,475.55875 30.5343,5.55114 v 2.77557 h -30.5343 z"
       display="inline"
       opacity="0.876"
       vector-effect="none"
       fill="url(#g)"
       fill-opacity="1"
       stroke="none"
       stroke-width="10.687"
       stroke-linecap="square"
       stroke-linejoin="miter"
       stroke-miterlimit="4"
       stroke-dasharray="none"
       stroke-dashoffset="0"
       stroke-opacity="1"
       stop-color="#000000" />
    <use
       xlink:href="#h"
       transform="matrix(-1,0,0,1,2176.9297,3.0534334)"
       width="100%"
       height="100%"
       id="use91"
       x="0"
       y="0" />
    <path
       style="font-variation-settings:normal;stroke-width:1.52672"
       fill="#77767b"
       d="m 1045.7168,477.59844 h 3.0534 v 21.55418 h -3.0534 z m 82.4427,-1.34657 h 3.0534 v 22.90075 h -3.0534 z m -82.4427,26.13434 h 3.0534 v 2.87328 h -3.0534 z m 82.4427,-0.18015 h 3.0534 v 3.05343 h -3.0534 z"
       id="path93" />
    <g
       transform="matrix(1.5267165,0,0,1.5267165,990.75494,140.37424)"
       id="g112">
      <g
         id="j"
         fill="none"
         stroke="#241f31"
         stroke-width="1"
         stroke-miterlimit="4"
         stroke-dasharray="none">
        <path
           style="font-variation-settings:normal"
           d="m 68,230.023 c -0.547,0 -1.065,0.213 -1.45,0.573 -0.383,0.36 -0.636,0.912 -0.519,1.498 l 1,5 c 0.095,0.475 0.291,0.93 0.617,1.285 0.327,0.355 0.805,0.598 1.352,0.598 h 17 c 1.087,0 1.977,-0.89 1.977,-1.977 v -5 c 0,-1.087 -0.89,-1.977 -1.977,-1.977 z"
           opacity="0.483"
           fill="#ffffff"
           stroke="none"
           stroke-linecap="square"
           id="path130" />
        <path
           style="font-variation-settings:normal"
           d="M 67.117,235.086 66.5,232 c -0.163,-0.815 0.669,-1.5 1.5,-1.5 h 18 c 0.831,0 1.5,0.669 1.5,1.5 v 2"
           stroke-linecap="round"
           id="path97" />
        <path
           style="font-variation-settings:normal;fill:url(#i)"
           d="m 88.5,231.5 4,-4 v 2 l -4,4 z"
           fill="url(#i)"
           stroke="none"
           stroke-linecap="round"
           transform="translate(0.5,0.5)"
           id="path99" />
        <path
           style="font-variation-settings:normal"
           d="m 74.219,77.035 c -0.174,0.31 -0.264,0.675 -0.188,1.059 l 1,5 c 0.095,0.475 0.291,0.93 0.617,1.285 0.327,0.355 0.805,0.598 1.352,0.598 h 17 c 1.087,0 1.977,-0.89 1.977,-1.977 v -2 c 0,1.087 -0.89,1.977 -1.977,1.977 H 77 a 1.834,1.834 0 0 1 -1.352,-0.598 c -0.326,-0.356 -0.522,-0.81 -0.617,-1.285 z"
           transform="translate(-8,156)"
           opacity="0.07"
           fill="#000000"
           stroke="none"
           stroke-linecap="square"
           id="path132" />
      </g>
      <use
         xlink:href="#j"
         transform="matrix(-1,0,0,1,128,0)"
         width="100%"
         height="100%"
         id="use104"
         x="0"
         y="0" />
      <path
         d="m 62,232 c 0,0 1,-0.5 2,-0.5 1,0 2,0.5 2,0.5"
         fill="none"
         stroke="#241f31"
         stroke-linecap="round"
         id="path106" />
      <path
         style="font-variation-settings:normal"
         fill="#9a9996"
         d="m 87,232 h 2 v 2 h -2 z"
         id="path108" />
      <path
         style="font-variation-settings:normal;fill:#9a9996;fill-opacity:1"
         fill="#c0bfbc"
         d="m 39,232 h 2 v 2 h -2 z"
         id="path110" />
    </g>
    <path
       d="m 1088.2435,435.03053 c -25.2092,0.12214 -45.5802,20.59235 -45.5802,45.80149 h 6.1069 a 39.69463,39.69463 0 0 1 16.2534,-32.03051 l 46.8855,-0.003 a 39.69463,39.69463 0 0 1 16.2504,32.03356 h 6.1068 c 0,-25.29616 -20.5053,-45.80149 -45.8015,-45.80149 a 44.27478,44.27478 0 0 0 -0.2198,0 z"
       fill="#24222e"
       id="path114"
       style="stroke-width:1.52672" />
    <path
       style="font-variation-settings:normal;stroke-width:1.52672"
       d="m 1088.245,435.03053 c -1.284,0.006 -2.5527,0.0763 -3.8107,0.18778 v 13.58167 l 14.1145,-0.002 v -12.63969 a 45.914473,45.914473 0 0 0 -10.3053,-1.12824 z"
       fill="#77767b"
       id="path116" />
  </g>
</svg>
