<svg xmlns="http://www.w3.org/2000/svg" width="16" height="16" viewBox="0 0 16 16">
  <path d="M 14 8 L 15 8 M 12.28 3.71 L 13 3.01 M 8 2 L 8 1 M 3.72 3.71 L 3 3 M 1 8 L 2 8 M 3 12.99 L 3.72 12.28 M 8 15 L 8 14 M 13 13 L 12.28 12.28" fill="none" stroke="currentColor" stroke-width="1" stroke-linecap="round" stroke-linejoin="round"/>
  <path d="M 6 6 C 4.89543 7.10457, 4.89543 8.89543, 6 10 C 7.10457 11.10457, 8.89543 11.10457, 10 10 C 11.10457 8.89543, 11.10457 7.10457, 10 6 C 8.89543 4.89543, 7.10457 4.89543, 6 6 Z" fill="none" stroke="currentColor" stroke-width="1" stroke-linecap="round" stroke-linejoin="round"/>
</svg>
