<?xml version="1.0" encoding="UTF-8"?>
<svg width="16px" height="16px" viewBox="0 0 16 16" version="1.1" xmlns="http://www.w3.org/2000/svg">
    <title>icon-close</title>
    <g stroke="none" stroke-width="1" fill="none" fill-rule="evenodd">
        <path fill="rgba(0,0,0,.75)" d="M3.29289,3.29289 C3.68342,2.90237 4.31658,2.90237 4.70711,3.29289 L8,6.58579 L11.29289,3.29289 C11.68342,2.90237 12.31658,2.90237 12.70711,3.29289 C13.09763,3.68342 13.09763,4.31658 12.70711,4.70711 L9.41421,8 L12.70711,11.29289 C13.09763,11.68342 13.09763,12.31658 12.70711,12.70711 C12.31658,13.09763 11.68342,13.09763 11.29289,12.70711 L8,9.41421 L4.70711,12.70711 C4.31658,13.09763 3.68342,13.09763 3.29289,12.70711 C2.90237,12.31658 2.90237,11.68342 3.29289,11.29289 L6.58579,8 L3.29289,4.70711 C2.90237,4.31658 2.90237,3.68342 3.29289,3.29289 Z"/>
    </g>
</svg>
