<svg xmlns="http://www.w3.org/2000/svg" viewBox="0 0 16 16"><path d="M8 0C3.594 0 0 3.594 0 8c0 4.406 3.594 8 8 8 4.406 0 8-3.594 8-8 0-4.406-3.594-8-8-8Zm0 2c3.326 0 6 2.674 6 6s-2.674 6-6 6-6-2.674-6-6 2.674-6 6-6Zm.873 2.567c1.497 0 2.71 1.175 2.71 2.625S10.37 9.818 8.873 9.818h-1.59l-2.266 2.159V6.08c0-.836.7-1.514 1.563-1.514z" style="font-variation-settings:&quot;opsz&quot;32,&quot;wght&quot;900;baseline-shift:baseline;display:inline;overflow:visible;opacity:1;vector-effect:none;stroke-linejoin:round;paint-order:stroke fill markers;enable-background:accumulate;stop-color:#000;stop-opacity:1"/></svg>