<svg width="256" height="256" preserveAspectRatio="xMidYMid" xmlns="http://www.w3.org/2000/svg"><path d="M128 62.27C91.698 62.27 62.27 91.7 62.27 128c0 36.302 29.428 65.73 65.73 65.73 36.301 0 65.73-29.428 65.73-65.73 0-36.301-29.429-65.73-65.73-65.73zm0 108.397c-23.564 0-42.667-19.103-42.667-42.667S104.436 85.333 128 85.333s42.667 19.103 42.667 42.667-19.103 42.667-42.667 42.667zM205.36 64.64c0 8.483-6.877 15.36-15.36 15.36s-15.36-6.877-15.36-15.36 6.877-15.36 15.36-15.36 15.36 6.877 15.36 15.36z" fill="#0a0a08"/><path d="M128 17.617c-34.191 0-38.458.134-51.97.75-12.996.593-20.626 2.88-25.493 4.772-6.524 2.535-11.691 5.894-16.598 10.8-4.906 4.907-8.265 10.074-10.8 16.598-1.892 4.868-4.179 12.497-4.772 25.492-.616 13.512-.752 17.78-.752 51.971 0 34.191.136 38.459.752 51.97.593 12.995 2.88 20.626 4.772 25.495 2.535 6.524 5.894 11.69 10.8 16.596 4.907 4.906 10.074 8.265 16.598 10.8 4.868 1.892 12.497 4.179 25.492 4.772 13.51.616 17.777.752 51.971.752 34.194 0 38.461-.136 51.97-.752 12.996-.593 20.625-2.88 25.493-4.772 6.524-2.535 11.691-5.894 16.598-10.8 4.906-4.906 8.265-10.072 10.8-16.596 1.892-4.869 4.179-12.5 4.772-25.494.616-13.513.75-17.78.75-51.971 0-34.191-.134-38.458-.75-51.97-.593-12.995-2.88-20.625-4.772-25.493-2.535-6.524-5.894-11.691-10.8-16.598-4.907-4.906-10.075-8.265-16.598-10.8-4.867-1.891-12.497-4.179-25.492-4.772-13.513-.616-17.78-.75-51.971-.75z" fill="none" stroke="#000" stroke-width="35"/></svg>