<?xml version="1.0" encoding="UTF-8" standalone="no"?>
<svg
   height="16px"
   viewBox="0 0 16 16"
   width="16px"
   version="1.1"
   id="svg287"
   sodipodi:docname="icon-sort.svg"
   inkscape:version="1.2.1 (9c6d41e410, 2022-07-14)"
   xmlns:inkscape="http://www.inkscape.org/namespaces/inkscape"
   xmlns:sodipodi="http://sodipodi.sourceforge.net/DTD/sodipodi-0.dtd"
   xmlns="http://www.w3.org/2000/svg"
   xmlns:svg="http://www.w3.org/2000/svg">
  <defs
     id="defs291" />
  <sodipodi:namedview
     id="namedview289"
     pagecolor="#505050"
     bordercolor="#ffffff"
     borderopacity="1"
     inkscape:showpageshadow="0"
     inkscape:pageopacity="0"
     inkscape:pagecheckerboard="1"
     inkscape:deskcolor="#505050"
     showgrid="false"
     inkscape:current-layer="svg287" />
  <path
     d="m 1 12 c 0 -0.265625 0.105469 -0.519531 0.292969 -0.707031 c 0.390625 -0.390625 1.023437 -0.390625 1.414062 0 l 1.292969 1.292969 v -7.585938 c 0 -0.550781 0.449219 -1 1 -1 s 1 0.449219 1 1 v 7.585938 l 1.292969 -1.292969 c 0.390625 -0.390625 1.023437 -0.390625 1.414062 0 s 0.390625 1.023437 0 1.414062 l -3 3 c -0.390625 0.390625 -1.023437 0.390625 -1.414062 0 l -3 -3 c -0.1875 -0.1875 -0.292969 -0.441406 -0.292969 -0.707031 z m 6 -8 c 0 -0.257812 0.097656 -0.511719 0.292969 -0.707031 l 3 -3 c 0.390625 -0.3906252 1.023437 -0.3906252 1.414062 0 l 3 3 c 0.1875 0.1875 0.292969 0.441406 0.292969 0.707031 s -0.105469 0.519531 -0.292969 0.707031 c -0.390625 0.390625 -1.023437 0.390625 -1.414062 0 l -1.292969 -1.292969 v 7.585938 c 0 0.550781 -0.449219 1 -1 1 s -1 -0.449219 -1 -1 v -7.585938 l -1.292969 1.292969 c -0.390625 0.390625 -1.023437 0.390625 -1.414062 0 c -0.195313 -0.195312 -0.292969 -0.449219 -0.292969 -0.707031 z m 0 0"
     fill="#2e3436"
     id="path285"
     style="fill:#000000;font-variation-settings:normal;opacity:1;vector-effect:none;fill-opacity:1;stroke-width:1;stroke-linecap:butt;stroke-linejoin:miter;stroke-miterlimit:4;stroke-dasharray:none;stroke-dashoffset:0;stroke-opacity:1;-inkscape-stroke:none;stop-color:#000000;stop-opacity:1" />
</svg>
